<?xml version="1.0" encoding="UTF-8"?><svg xmlns="http://www.w3.org/2000/svg" xmlns:xlink="http://www.w3.org/1999/xlink" viewBox="0 0 1080 1080"><defs><style>.cls-1{fill:none;}.cls-2{clip-path:url(#clippath);}.cls-3{fill:#fff;}.cls-4{fill:#97d700;}.cls-5{fill:url(#grad4);}.cls-6{clip-path:url(#clippath-1);}.cls-7{opacity:.65;}.cls-8{fill:url(#radial-gradient);}.cls-9{fill:url(#grad4-2);}.cls-10{fill:url(#grad4-5);}.cls-11{fill:url(#grad4-6);}.cls-12{fill:url(#grad4-3);}.cls-13{fill:url(#grad4-4);}</style><clipPath id="clippath"><circle class="cls-1" cx="415.81" cy="270" r="105.85"/></clipPath><clipPath id="clippath-1"><circle class="cls-1" cx="664.19" cy="270" r="105.85"/></clipPath><linearGradient id="grad4" x1="202.14" y1="694.46" x2="202.14" y2="723.07" gradientUnits="userSpaceOnUse"><stop offset=".26" stop-color="#97d700" stop-opacity="0"/><stop offset=".42" stop-color="#97d700" stop-opacity=".2"/><stop offset=".6" stop-color="#97d700" stop-opacity=".41"/><stop offset=".77" stop-color="#97d700" stop-opacity=".57"/><stop offset=".91" stop-color="#97d700" stop-opacity=".67"/><stop offset="1" stop-color="#97d700" stop-opacity=".7"/></linearGradient><linearGradient id="grad4-2" x1="66.19" y1="698.6" x2="66.19" xlink:href="#grad4"/><linearGradient id="grad4-3" x1="303.33" y1="714.44" x2="324.67" y2="714.44" xlink:href="#grad4"/><radialGradient id="radial-gradient" cx="235.63" cy="722.37" fx="235.63" fy="722.37" r="32.56" gradientUnits="userSpaceOnUse"><stop offset="0" stop-color="#97d700" stop-opacity=".7"/><stop offset=".09" stop-color="#97d700" stop-opacity=".67"/><stop offset=".23" stop-color="#97d700" stop-opacity=".57"/><stop offset=".4" stop-color="#97d700" stop-opacity=".41"/><stop offset=".58" stop-color="#97d700" stop-opacity=".2"/><stop offset=".74" stop-color="#97d700" stop-opacity="0"/></radialGradient><linearGradient id="grad4-4" x1="249.24" y1="582.33" x2="249.24" y2="553.55" xlink:href="#grad4"/><linearGradient id="grad4-5" x1="545.02" y1="688.96" x2="545.02" xlink:href="#grad4"/><linearGradient id="grad4-6" x1="746.43" y1="693.47" x2="746.43" xlink:href="#grad4"/></defs><g id="Text"><g><path class="cls-3" d="M188.13,723.07v-.47c.16-.39,.28-.98,.35-1.77,.08-.79,.12-1.5,.12-2.13,0-2.44-.34-5.14-1-8.1-.67-2.96-1.95-6.64-3.84-11.05l-14.3-32.15c-4.42-.16-10.28-.24-17.61-.24h-41.79c-5.79,0-11.01,.08-15.66,.24l-13.59,31.21c-1.18,2.92-2.44,6.11-3.78,9.58-1.34,3.47-2.01,6.97-2.01,10.52,0,1.03,.08,1.87,.24,2.54,.16,.67,.31,1.12,.47,1.36v.47h-24.12v-.47c1.42-1.5,3.19-4.16,5.32-7.98,2.13-3.82,4.45-8.61,6.97-14.36l67.74-150.25h9.46l64.19,144.46c1.5,3.39,3.05,6.68,4.67,9.87,1.61,3.19,3.13,6.05,4.55,8.57,1.42,2.52,2.68,4.65,3.78,6.38,1.1,1.73,1.85,2.84,2.25,3.31v.47h-32.39Zm-76.6-66.08c4.57,0,9.26-.02,14.07-.06,4.81-.04,9.52-.08,14.13-.12,4.61-.04,9.04-.08,13.3-.12,4.26-.04,8.12-.1,11.59-.18l-33.22-75.07-32.63,75.54h12.77Z"/><path class="cls-3" d="M260,712.66c9.3,0,17.85-.39,25.65-1.18,7.8-.79,14.62-1.69,20.45-2.72,6.78-1.1,12.96-2.4,18.56-3.9l-3.43,19.15c-.95-.08-2.36-.16-4.26-.24-1.89-.08-4-.16-6.32-.24-2.33-.08-4.77-.14-7.33-.18-2.56-.04-4.99-.08-7.27-.12-2.29-.04-4.31-.08-6.09-.12-1.77-.04-3.06-.06-3.84-.06h-51.07v-.47c.47-1.66,.93-3.7,1.36-6.15,.43-2.44,.81-5.48,1.12-9.1,.31-3.62,.55-7.94,.71-12.94,.16-5,.24-10.86,.24-17.55v-76.96c0-6.7-.08-12.55-.24-17.55-.16-5-.4-9.34-.71-13-.32-3.66-.69-6.72-1.12-9.16-.43-2.44-.89-4.49-1.36-6.15v-.47h28.37v.47c-.47,1.66-.93,3.71-1.36,6.15-.43,2.44-.79,5.5-1.06,9.16-.28,3.66-.51,8-.71,13-.2,5.01-.3,10.86-.3,17.55v112.78Z"/><path class="cls-3" d="M423.73,550.71c13.16,0,25.32,2.15,36.47,6.44,11.15,4.3,20.79,10.33,28.9,18.09,8.12,7.76,14.46,17.08,19.03,27.96,4.57,10.88,6.86,22.9,6.86,36.06,0,7.49-.87,14.86-2.6,22.11-1.73,7.25-4.28,14.11-7.62,20.57-3.35,6.46-7.47,12.43-12.35,17.91-4.89,5.48-10.46,10.21-16.73,14.19-6.27,3.98-13.18,7.09-20.75,9.34s-15.72,3.37-24.47,3.37c-13.16,0-25.32-2.11-36.47-6.32-11.15-4.22-20.79-10.18-28.9-17.91-8.12-7.72-14.46-17-19.03-27.84-4.57-10.84-6.86-22.87-6.86-36.11,0-7.49,.87-14.85,2.6-22.11,1.73-7.25,4.27-14.15,7.63-20.69,3.35-6.54,7.45-12.55,12.29-18.03,4.85-5.48,10.4-10.23,16.67-14.24,6.27-4.02,13.2-7.15,20.81-9.4,7.6-2.25,15.78-3.37,24.53-3.37Zm6.74,165.38c8.75,0,16.75-1.58,24-4.73,7.25-3.15,13.5-7.72,18.74-13.71,5.24-5.99,9.32-13.3,12.24-21.93,2.91-8.63,4.37-18.42,4.37-29.38,0-12.14-1.4-23.39-4.2-33.75-2.8-10.36-6.96-19.35-12.47-26.95-5.52-7.6-12.39-13.55-20.63-17.85-8.24-4.29-17.83-6.44-28.79-6.44-8.75,0-16.75,1.56-24,4.67-7.25,3.11-13.5,7.62-18.74,13.54-5.24,5.91-9.32,13.16-12.23,21.75-2.92,8.59-4.37,18.36-4.37,29.32,0,12.06,1.38,23.31,4.14,33.75,2.76,10.44,6.9,19.49,12.41,27.13,5.51,7.65,12.41,13.65,20.69,18.03s17.89,6.56,28.84,6.56Z"/><path class="cls-3" d="M533.2,722.59c.87-1.26,1.85-3.13,2.96-5.62,1.1-2.48,1.97-5.62,2.6-9.4,.87-5.52,1.83-11.72,2.9-18.62,1.06-6.9,2.17-14.13,3.31-21.69,1.14-7.57,2.29-15.31,3.43-23.23,1.14-7.92,2.25-15.72,3.31-23.41,1.06-7.68,2.09-15.09,3.07-22.22,.98-7.13,1.87-13.65,2.66-19.56,.79-5.91,1.44-11.05,1.95-15.43,.51-4.37,.89-7.66,1.12-9.87h15.01l74.36,139.02,73.77-139.02h11.23l19.39,140.44c.55,4.41,1.14,8.2,1.77,11.35,.63,3.15,1.26,5.85,1.89,8.1,.63,2.25,1.24,4.1,1.83,5.56,.59,1.46,1.16,2.66,1.71,3.61v.47h-29.79v-.47c.39-.87,.77-2.28,1.12-4.26,.35-1.97,.53-4.33,.53-7.09,0-1.02-.04-2.07-.12-3.13-.08-1.06-.2-2.23-.35-3.49l-15.01-113.25-69.75,131.22-8.16-.95-70.22-131.46c-2.76,18.68-5.16,35.94-7.21,51.78-.87,6.78-1.73,13.54-2.6,20.27-.87,6.74-1.64,13.02-2.3,18.86-.67,5.83-1.2,10.98-1.6,15.43-.4,4.45-.59,7.74-.59,9.87,0,2.68,.08,5.04,.24,7.09,.16,2.05,.31,3.78,.47,5.2,.24,1.66,.47,3.11,.71,4.37h-23.64v-.47Z"/><path class="cls-3" d="M842.33,725.19c-8.75,0-16.95-1.38-24.59-4.14-7.64-2.76-14.3-6.8-19.98-12.12s-10.15-11.9-13.42-19.74c-3.27-7.84-4.91-16.81-4.91-26.89,0-8.9,1.5-17.16,4.49-24.77,2.99-7.6,7.13-14.2,12.41-19.8,5.28-5.59,11.45-9.97,18.5-13.12,7.05-3.15,14.68-4.73,22.88-4.73s15.64,1.4,22.58,4.2c6.93,2.8,12.94,6.86,18.03,12.18,5.08,5.32,9.1,11.9,12.06,19.74,2.95,7.84,4.55,16.77,4.79,26.78-8.91-.16-17.81-.27-26.72-.35-8.91-.08-18.17-.12-27.78-.12-6.86,0-13.54,.04-20.04,.12-6.5,.08-12.35,.2-17.56,.35,.47,8.2,1.75,15.6,3.84,22.22,2.09,6.62,4.97,12.28,8.63,16.96,3.67,4.69,8.12,8.3,13.36,10.82,5.24,2.52,11.17,3.78,17.79,3.78,4.57,0,8.88-.53,12.95-1.6,4.06-1.06,7.74-2.54,11.05-4.43s6.27-4.12,8.87-6.68c2.6-2.56,4.81-5.34,6.62-8.33l1.42,.71-8.75,21.04c-4.26,2.21-9.34,4.08-15.25,5.62s-13,2.31-21.28,2.31Zm-15.72-72.11c7.88,0,15.78-.02,23.7-.06,7.92-.04,15.11-.18,21.57-.41-.71-6.86-2.05-13-4.02-18.44-1.97-5.44-4.49-10.05-7.57-13.83s-6.7-6.7-10.88-8.75c-4.18-2.05-8.79-3.07-13.83-3.07-4.57,0-8.77,1-12.59,3.01-3.82,2.01-7.15,4.91-9.99,8.69s-5.12,8.41-6.86,13.89c-1.73,5.48-2.76,11.72-3.07,18.74,3.55,.16,7.29,.24,11.23,.24h12.29Z"/><path class="cls-3" d="M911.13,688.19c0-6.22,1.28-11.62,3.84-16.2,2.56-4.57,5.97-8.47,10.23-11.7,4.26-3.23,9.1-5.85,14.54-7.86s11.07-3.58,16.9-4.73c5.83-1.14,11.59-1.93,17.26-2.36,5.67-.43,10.88-.69,15.6-.77v-6.03c0-5.2-.67-9.69-2.01-13.48-1.34-3.78-3.23-6.92-5.67-9.4-2.44-2.48-5.38-4.33-8.81-5.56-3.43-1.22-7.19-1.83-11.29-1.83-2.84,0-5.64,.24-8.39,.71-2.76,.47-5.62,1.26-8.57,2.36-2.96,1.1-6.07,2.6-9.34,4.49-3.27,1.89-6.8,4.3-10.58,7.21l-1.18-.71,8.04-16.67c2.6-1.18,5.16-2.15,7.68-2.9,2.52-.75,5.08-1.36,7.68-1.83s5.26-.81,7.98-1c2.72-.2,5.57-.3,8.57-.3,8.28,0,15.35,1,21.22,3.01,5.87,2.01,10.68,4.77,14.42,8.28,3.74,3.51,6.48,7.61,8.22,12.29,1.73,4.69,2.6,9.71,2.6,15.07v38.54c0,6.7,.1,12.55,.3,17.55,.2,5.01,.43,9.32,.71,12.94,.28,3.63,.63,6.66,1.06,9.1,.43,2.44,.89,4.49,1.36,6.15v.47h-26.13v-.47c.39-1.26,.69-2.68,.89-4.26,.2-1.58,.37-3.47,.53-5.67-1.66,1.42-3.61,2.88-5.85,4.37-2.25,1.5-4.81,2.86-7.68,4.08-2.88,1.22-6.07,2.21-9.58,2.96-3.51,.75-7.35,1.12-11.53,1.12-13.71,0-24.31-3.21-31.8-9.63-7.49-6.42-11.23-15.55-11.23-27.37Zm78.38-34.4c-7.17,.08-14.07,.49-20.69,1.24-6.62,.75-12.47,2.31-17.56,4.67-5.08,2.36-9.14,5.73-12.18,10.11-3.04,4.37-4.55,10.19-4.55,17.44,0,9.3,2.32,16.39,6.97,21.28,4.65,4.89,11.07,7.33,19.27,7.33,3.78,0,7.23-.53,10.34-1.6,3.11-1.06,5.87-2.4,8.28-4.02,2.4-1.61,4.43-3.39,6.09-5.32,1.66-1.93,2.91-3.8,3.78-5.62,.16-2.99,.24-6.32,.24-9.99v-35.52Z"/></g></g><g id="Shapes"><g><g class="cls-7"><path class="cls-4" d="M415.81,164.15c58.46,0,105.85,47.39,105.85,105.85s-47.39,105.85-105.85,105.85-105.85-47.39-105.85-105.85,47.39-105.85,105.85-105.85m0-5c-29.61,0-57.44,11.53-78.38,32.47-20.94,20.94-32.47,48.77-32.47,78.38s11.53,57.44,32.47,78.38c20.94,20.94,48.77,32.47,78.38,32.47s57.44-11.53,78.38-32.47c20.94-20.94,32.47-48.77,32.47-78.38s-11.53-57.44-32.47-78.38c-20.94-20.94-48.77-32.47-78.38-32.47h0Z"/></g><g class="cls-2"><path class="cls-3" d="M424.72,539.33c18.04,0,34.63-.76,49.76-2.29,15.13-1.53,28.35-3.29,39.67-5.27,13.15-2.14,25.14-4.66,36-7.57l-6.65,37.15c-1.83-.15-4.59-.31-8.26-.46-3.67-.15-7.76-.31-12.27-.46-4.51-.15-9.25-.27-14.22-.34-4.97-.08-9.67-.15-14.1-.23-4.44-.08-8.37-.15-11.81-.23-3.44-.08-5.93-.11-7.45-.11h-99.06v-.92c.92-3.21,1.79-7.18,2.64-11.92,.84-4.74,1.57-10.62,2.18-17.66,.61-7.03,1.07-15.4,1.38-25.11,.31-9.71,.46-21.06,.46-34.05v-149.28c0-12.99-.15-24.34-.46-34.05-.31-9.71-.77-18.12-1.38-25.22-.61-7.11-1.34-13.03-2.18-17.77-.84-4.74-1.72-8.71-2.64-11.92v-.92h55.03v.92c-.92,3.21-1.8,7.19-2.64,11.92-.84,4.74-1.53,10.66-2.06,17.77-.54,7.11-1,15.52-1.38,25.22-.38,9.71-.57,21.06-.57,34.05v218.76Z"/></g></g><g><g class="cls-7"><path class="cls-4" d="M664.19,164.15c58.46,0,105.85,47.39,105.85,105.85s-47.39,105.85-105.85,105.85-105.85-47.39-105.85-105.85,47.39-105.85,105.85-105.85m0-5c-29.61,0-57.44,11.53-78.38,32.47-20.94,20.94-32.47,48.77-32.47,78.38s11.53,57.44,32.47,78.38c20.94,20.94,48.77,32.47,78.38,32.47s57.44-11.53,78.38-32.47c20.94-20.94,32.47-48.77,32.47-78.38s-11.53-57.44-32.47-78.38c-20.94-20.94-48.77-32.47-78.38-32.47h0Z"/></g><g class="cls-6"><path class="cls-3" d="M624.05,341.56c1.42-2.06,3.03-5.13,4.84-9.19,1.81-4.06,3.22-9.19,4.26-15.38,1.42-9.03,3-19.19,4.74-30.48,1.74-11.29,3.55-23.12,5.42-35.51,1.87-12.38,3.74-25.06,5.61-38.02,1.87-12.96,3.67-25.74,5.42-38.31,1.74-12.58,3.42-24.7,5.03-36.38,1.61-11.67,3.06-22.35,4.35-32.03,1.29-9.68,2.35-18.09,3.19-25.25,.84-7.16,1.45-12.54,1.84-16.16h24.58l121.72,227.56,120.75-227.56h18.38l31.74,229.89c.9,7.23,1.87,13.42,2.9,18.58,1.03,5.16,2.06,9.58,3.1,13.26,1.03,3.68,2.03,6.71,3,9.09,.97,2.39,1.9,4.35,2.81,5.9v.77h-48.76v-.77c.64-1.42,1.26-3.74,1.84-6.97,.58-3.22,.87-7.09,.87-11.61,0-1.68-.07-3.39-.19-5.13-.13-1.74-.32-3.64-.58-5.71l-24.58-185.38-114.17,214.79-13.35-1.55-114.94-215.18c-4.52,30.57-8.45,58.83-11.8,84.76-1.42,11.1-2.84,22.16-4.26,33.19-1.42,11.03-2.68,21.32-3.77,30.86-1.1,9.55-1.97,17.97-2.61,25.25-.65,7.29-.97,12.67-.97,16.16,0,4.39,.13,8.26,.39,11.61,.26,3.36,.51,6.19,.77,8.51,.39,2.71,.77,5.1,1.16,7.16h-38.7v-.77Z"/></g></g><g><path class="cls-5" d="M205.27,694.46c1.5,3.39,3.05,6.68,4.67,9.87,1.61,3.19,3.13,6.05,4.55,8.57,1.42,2.52,2.68,4.65,3.78,6.38,1.1,1.73,1.85,2.84,2.25,3.31v.47h-32.39v-.47c.16-.39,.28-.98,.35-1.77,.08-.79,.12-1.5,.12-2.13,0-2.44-.34-5.14-1-8.1-.67-2.96-1.95-6.64-3.84-11.05l21.52-5.08Z"/><path class="cls-9" d="M80.79,698.6c-1.18,2.92-2.44,6.11-3.78,9.58-1.34,3.47-2.01,6.97-2.01,10.52,0,1.03,.08,1.87,.24,2.54,.16,.67,.31,1.12,.47,1.36v.47h-24.12v-.47c1.42-1.5,3.19-4.16,5.32-7.98,2.13-3.82,4.45-8.61,6.97-14.36l16.9-1.66Z"/><path class="cls-12" d="M306.11,708.76c6.78-1.1,12.96-2.4,18.56-3.9l-3.43,19.15c-.95-.08-2.36-.16-4.26-.24-1.89-.08-4-.16-6.32-.24-2.33-.08-4.77-.14-7.33-.18l2.78-14.6Z"/><path class="cls-8" d="M260,694.46v18.21l.05,10.4h-24.99v-.47c.47-1.66,.93-3.7,1.36-6.15,.43-2.44,.81-5.48,1.12-9.1,.31-3.62,.55-7.94,.71-12.94l21.75,.06Z"/><path class="cls-13" d="M238.25,582.33c-.16-5-.4-9.34-.71-13-.32-3.66-.69-6.72-1.12-9.16-.43-2.44-.89-4.49-1.36-6.15v-.47h28.37v.47c-.47,1.66-.93,3.71-1.36,6.15-.43,2.44-.79,5.5-1.06,9.16-.28,3.66-.51,8-.71,13h-22.05Z"/><path class="cls-10" d="M556.01,696.53c-.4,4.45-.59,7.74-.59,9.87,0,2.68,.08,5.04,.24,7.09,.16,2.05,.31,3.78,.47,5.2,.24,1.66,.47,3.11,.71,4.37h-23.64v-.47c.87-1.26,1.85-3.13,2.96-5.62,1.1-2.48,1.97-5.62,2.6-9.4,.87-5.52,1.83-11.72,2.9-18.62l14.36,7.57Z"/><path class="cls-11" d="M754.26,693.99c.55,4.41,1.14,8.2,1.77,11.35,.63,3.15,1.26,5.85,1.89,8.1,.63,2.25,1.24,4.1,1.83,5.56,.59,1.46,1.16,2.66,1.71,3.61v.47h-29.79v-.47c.39-.87,.77-2.28,1.12-4.26,.35-1.97,.53-4.33,.53-7.09,0-1.02-.04-2.07-.12-3.13-.08-1.06-.2-2.23-.35-3.49l-1.48-11.16,22.88,.52Z"/></g></g></svg>