<svg xmlns="http://www.w3.org/2000/svg" viewBox="0 0 1080 1080"><defs><style>.cls-1{fill:#fff;}.cls-2{fill:none;stroke:#97d700;stroke-miterlimit:10;stroke-width:5px;opacity:0.65;}</style></defs><g id="Text"><path class="cls-1" d="M103.63,679.5,84.88,720h-27l82.5-177.25L219.88,720h-27.5l-17.5-40.5Zm36.25-80.25-25.75,56.5h50.5Z"/><path class="cls-1" d="M311.88,590.25c-7.75-12.75-13.5-16.5-25-16.5-13.75,0-24.25,9-24.25,20.75,0,5.5,2.5,10.25,8,14,4.75,3.25,4.75,3.25,26.75,12.25,27,11.25,39,26.25,39,49.25,0,30.5-22.75,53.25-53.5,53.25-18.25,0-33.75-8-43.5-22.25-5.5-8-8-14.5-9.75-27l25.5-5.75c1.25,10,2.25,14,4.75,18.25,4.25,8,13.75,13,24,13,15.75,0,27.25-11.75,27.25-27.75,0-9.5-4-16.75-11.5-22-5.75-3.75-5.75-3.75-28.25-13.25-23.25-9.75-34.25-23.5-34.25-42.25,0-25.25,21.5-44.25,50-44.25,20,0,33.75,8.5,45,28Z"/><path class="cls-1" d="M532.63,636.75c0,48-39.25,86.5-88,86.5-24,0-48.75-11.25-65.25-29.5-14-15.5-21-35-21-57.75,0-47,39.75-86,87.5-86A87,87,0,0,1,532.63,636.75Zm-149-.5c0,18.75,6,33.5,18.5,45.5,11.75,11.25,27.5,17.75,42.75,17.75,35.25,0,62.5-27.5,62.5-62.75,0-35.5-26.75-63-61.75-63C411.13,573.75,383.63,601.25,383.63,636.25Z"/><path class="cls-1" d="M593.38,540.75l57.25,129.5,59.25-129.5L741.38,720H715.63l-16-100.5L650.38,727.75l-48-108.5L584.38,720h-26Z"/><path class="cls-1" d="M873.62,717.5c0,20.5-2.25,30-9,39.75-9,12.75-24.25,20.25-41.75,20.25s-33.5-7-42.49-18.75c-5-6.75-7.26-13.25-9-27.25h23.74c2.25,10,4.5,14.5,9.5,18.25a30.52,30.52,0,0,0,18,6c9.25,0,17.75-4.25,22-10.75,3.25-5,4.75-11.75,4.75-22V708.25c-10,10.5-20.25,15-33.25,15-28.25,0-49-23.25-49-55,0-32.5,20.75-56.25,49.25-56.25a43.41,43.41,0,0,1,33,14.75v-12h24.25Zm-81.75-49.75c0,11.5,2.75,19.25,8.75,25.25a29,29,0,0,0,20.25,8.5c17.5,0,29.5-13.75,29.5-33.75,0-20.25-12-34-29.5-34S791.87,647.25,791.87,667.75Z"/><path class="cls-1" d="M1007.37,614.75V720H983.12V709c-11.25,10.5-19.5,14.25-32.25,14.25-29,0-50.25-23.75-50.25-56,0-31.75,21.25-55.25,49.5-55.25,13.5,0,22.5,4,33,15V614.75Zm-82,52.5c0,20,12,34.25,29,34.25,18,0,30.25-13.75,30.25-33.75s-12.25-34-30-34C937.87,633.75,925.37,648,925.37,667.25Z"/></g><g id="Shapes"><circle class="cls-2" cx="445.5" cy="636.63" r="75.24"/><circle class="cls-1" cx="545.32" cy="270" r="75.24"/><circle class="cls-2" cx="283.14" cy="671.76" r="41.96"/><circle class="cls-2" cx="957.09" cy="667.49" r="49.62"/><circle class="cls-2" cx="286.09" cy="596.93" r="36.46"/><polygon class="cls-2" points="140.38 572.1 75.77 712.55 204.99 712.55 140.38 572.1"/><polygon class="cls-1" points="715.73 194.76 644 338.23 787.46 338.23 715.73 194.76"/><rect class="cls-1" x="292.54" y="201.68" width="136.64" height="136.64"/></g></svg>