<svg xmlns="http://www.w3.org/2000/svg" viewBox="0 0 1080 1080"><defs><style>.cls-1{fill:#fff;}.cls-2{opacity:0.65;}.cls-3,.cls-4{fill:none;stroke-miterlimit:10;}.cls-3{stroke:#97d700;}.cls-4{stroke:#fff;stroke-width:5px;}</style></defs><g id="Text"><path class="cls-1" d="M216.33,720H186.65l-4.2-20.16-7.84-24.92-38.08-.84-34.44.84-8.4,23.52L89.21,720H60.37l64.12-179.76h33.88Zm-49-68.6-25.76-82.88h-2l-29.4,82.88,28.28.56Z"/><path class="cls-1" d="M340.92,547.24l-4.76,26.32-4.48,1.68c-11.76-8.68-25.2-13.72-36.68-13.72-19.32,0-30,12.88-30,25.2,0,33,80.92,30,80.92,82.32,0,29.12-25.2,53.2-63.28,53.2a117.77,117.77,0,0,1-50.4-12l3.64-28.56,3.64-1.68c14.56,13.72,32.76,19.6,45.92,19.6,20.44,0,31.92-12.88,31.92-26,0-35-80.64-30.24-80.64-82.88,0-29.4,24.92-52.36,61.6-52.36A110.52,110.52,0,0,1,340.92,547.24Z"/><path class="cls-1" d="M526.28,626.48c0,61.32-30,96-82.88,96-49.28,0-77-33-77-90.72,0-60.2,29.68-93.8,82.32-93.8C498.56,538,526.28,569.92,526.28,626.48Zm-130.2,2c0,50.12,16,71.68,49.84,71.68,34.16,0,50.4-21,50.4-68,0-49.28-16-70.56-49.84-70.56S396.08,582.52,396.08,628.44Z"/><path class="cls-1" d="M742.16,720H716.4l-3.64-54.6-8.4-81.2h-2L656.2,700.12h-23L590.4,584.2h-2.52l-8.4,78.68L575,720H550.64L569.4,540.24h33l8.4,26.88,34.44,95.48h2.24l36.4-96.32,8.4-26h32.76Z"/><path class="cls-1" d="M871.52,610l-.56,1.12c3.64,6.16,5.32,13.44,5.32,21.56,0,27.44-20.16,45.08-52.92,45.08A82.18,82.18,0,0,1,806.28,676c-4.48,3.64-5.88,6.16-5.88,9.24,0,19.88,82.32,2.24,82.32,45.08,0,24.92-26.6,44-61.88,44-32.48,0-49.56-16-49.56-37.52,5.88-9.8,14.56-16.52,24.08-22.68v-1.4c-11.76-3.92-20.44-10.36-20.44-23.52a61.71,61.71,0,0,1,17.92-17.08v-1.4c-12.6-7-19.32-19.6-19.32-35.84,0-28.84,20.72-45.64,52.36-45.64,10.08,0,18.48,1.68,25.76,4.76a297.22,297.22,0,0,0,41.44-9.8l2.52,1.68v18.76C888,607.16,879.92,608.56,871.52,610Zm-58,106.68c-11.48,7.28-17.92,14-17.92,21.84,0,9.8,9.52,17.36,28.56,17.36,19.6,0,33.88-8.12,33.88-20.16C858.08,720.84,835.4,720,813.56,716.64Zm37.52-84c0-16-8.4-24.92-25.48-24.92-17.36,0-26.88,9-26.88,25.76,0,16.52,9,26,25.76,26C841.56,659.52,851.08,649.72,851.08,632.64Z"/><path class="cls-1" d="M999.2,623.4c0,9.8-3.36,56.84-3.36,66.36,0,7.28,2.24,9.52,8.12,9.52a42.82,42.82,0,0,0,8.4-1.12l2.52,2-2.8,15.68A45.63,45.63,0,0,1,994.44,722c-11.48-1.12-19-8.68-20.44-20.72h-2c-9,9.52-18.48,16.8-29.12,21-26-.28-41.44-14.28-41.44-36.68,0-17.64,9.8-27.16,27.16-31.08l44.24-9.8.28-15.12c0-14-7.28-21-20.16-21-12.6,0-24.92,5.6-40,17.92l-2.24-1.4-3.64-19.88c16-10.92,33.32-16.8,50.4-16.8C983,588.4,999.2,601.28,999.2,623.4Zm-62.72,46.48c-6.72,1.4-9.52,4.48-9.52,12,0,11.48,6.72,17.92,17.08,17.92,9.8,0,18.76-6.44,28-17.08l.84-21.56Z"/></g><g id="Shapes"><g class="cls-2"><rect class="cls-3" x="206.3" y="183.42" width="173.15" height="173.15"/><line class="cls-3" x1="379.45" y1="183.42" x2="206.3" y2="356.58"/><line class="cls-3" x1="206.3" y1="183.42" x2="379.45" y2="356.58"/><circle class="cls-3" cx="292.88" cy="270" r="86.58"/><rect class="cls-3" x="233.02" y="183.42" width="119.71" height="173.15"/></g><g class="cls-2"><rect class="cls-3" x="495.73" y="183.42" width="173.15" height="173.15"/><line class="cls-3" x1="668.89" y1="183.42" x2="495.73" y2="356.58"/><line class="cls-3" x1="495.73" y1="183.42" x2="668.89" y2="356.58"/><circle class="cls-3" cx="582.31" cy="270" r="86.58"/><rect class="cls-3" x="522.46" y="183.42" width="119.71" height="173.15"/></g><g class="cls-2"><rect class="cls-3" x="692.59" y="183.42" width="173.15" height="173.15"/><line class="cls-3" x1="865.74" y1="183.42" x2="692.59" y2="356.58"/><line class="cls-3" x1="692.59" y1="183.42" x2="865.74" y2="356.58"/><circle class="cls-3" cx="779.16" cy="270" r="86.58"/><rect class="cls-3" x="719.31" y="183.42" width="119.71" height="173.15"/></g><g class="cls-2"><rect class="cls-3" x="393.42" y="270" width="86.58" height="86.58"/><line class="cls-3" x1="480" y1="270" x2="393.42" y2="356.58"/><line class="cls-3" x1="393.42" y1="270" x2="480" y2="356.58"/><rect class="cls-3" x="393.42" y="183.42" width="86.58" height="86.58"/><line class="cls-3" x1="480" y1="183.42" x2="393.42" y2="270"/><line class="cls-3" x1="393.42" y1="183.42" x2="480" y2="270"/></g><circle class="cls-4" cx="582.31" cy="270" r="85.9"/><polyline class="cls-4" points="352.73 356.58 292.88 189.42 233.02 356.58"/><line class="cls-4" x1="260.92" y1="275.88" x2="324.71" y2="275.88"/><polyline class="cls-4" points="873.7 356.58 858.7 191.42 779.16 351.58 699.62 191.42 684.62 356.58"/><path class="cls-4" d="M394.94,344.36c15,8.08,29.72,12.22,45.94,12.22,22.45,0,39.12-19,39.12-39,0-43-77.26-58-77.26-99.24,0-24.3,19.88-34.9,35.78-34.9,13.4,0,25.92,6.19,32.25,11.64"/><g class="cls-2"><rect class="cls-3" x="357.31" y="540" width="180" height="180"/><line class="cls-3" x1="537.31" y1="540" x2="357.31" y2="720"/><line class="cls-3" x1="357.31" y1="540" x2="537.31" y2="720"/><circle class="cls-3" cx="447.31" cy="630" r="90"/><rect class="cls-3" x="385.1" y="540" width="124.44" height="180"/></g><g class="cls-2"><rect class="cls-3" x="47.84" y="540" width="180" height="180"/><line class="cls-3" x1="227.84" y1="540" x2="47.84" y2="720"/><line class="cls-3" x1="47.84" y1="540" x2="227.84" y2="720"/><circle class="cls-3" cx="137.84" cy="630" r="90"/><rect class="cls-3" x="75.62" y="540" width="124.44" height="180"/></g><g class="cls-2"><rect class="cls-3" x="556.79" y="540" width="180" height="180"/><line class="cls-3" x1="736.79" y1="540" x2="556.79" y2="720"/><line class="cls-3" x1="556.79" y1="540" x2="736.79" y2="720"/><circle class="cls-3" cx="646.79" cy="630" r="90"/><rect class="cls-3" x="584.57" y="540" width="124.44" height="180"/></g><g class="cls-2"><rect class="cls-3" x="244.11" y="630" width="90" height="90"/><line class="cls-3" x1="334.11" y1="630" x2="244.11" y2="720"/><line class="cls-3" x1="244.11" y1="630" x2="334.11" y2="720"/><rect class="cls-3" x="244.11" y="540" width="90" height="90"/><line class="cls-3" x1="334.11" y1="540" x2="244.11" y2="630"/><line class="cls-3" x1="244.11" y1="540" x2="334.11" y2="630"/></g></g></svg>