<svg xmlns="http://www.w3.org/2000/svg" xmlns:xlink="http://www.w3.org/1999/xlink" viewBox="0 0 1080 1080"><defs><style>.cls-1,.cls-10,.cls-6,.cls-7,.cls-9{fill:none;}.cls-2{fill:#fff;}.cls-11,.cls-3{opacity:0.65;}.cls-11,.cls-4{fill:#97d700;}.cls-5{clip-path:url(#clip-path);}.cls-10,.cls-6,.cls-7,.cls-9{stroke:#97d700;stroke-miterlimit:10;stroke-width:3px;}.cls-7{stroke-dasharray:8.08 8.08;}.cls-8{clip-path:url(#clip-path-2);}.cls-9{stroke-dasharray:7.58 7.58;}.cls-10{stroke-dasharray:7.9 7.9;}</style><clipPath id="clip-path"><circle class="cls-1" cx="415.81" cy="270" r="105.85"/></clipPath><clipPath id="clip-path-2"><circle class="cls-1" cx="664.19" cy="270" r="105.85"/></clipPath></defs><g id="Text"><path class="cls-2" d="M88.13,658.75l-4.25,10.5c-8.5,19.75-9.75,24-9.75,29.75,0,9,6.75,15.25,16.25,15.25h2V720H42.88v-5.75l2.25-.25c13.25-3,17.75-8.25,27.25-33l6-14.25,48.25-116h4.75L187.13,683.5c11,26.5,12.5,28.25,26.25,30.75h1.5V720h-65.5v-5.75h2c14,0,18.5-2,18.5-8.75,0-3,0-3-5.75-16l-12.75-30.75ZM119.88,582l-29.5,71h59Z"/><path class="cls-2" d="M360.38,720H218.88v-5.75h5c19.75-.25,21.5-3.25,21.25-37.75V594.75c.25-33.75-1.25-36.25-22.5-35.75h-3.75v-5.75h80V559h-7.5c-21.25-.5-22.75,2-22.25,35.75V682c-.75,30,.75,32,25,32.25h12.5c28.5,1.25,39.5-8.5,49.25-43.5h5.75Z"/><path class="cls-2" d="M532.38,572.75c16.75,14.75,26.5,38,26.5,63.5,0,51.75-36.5,86.75-90.75,86.75-54.5,0-90.75-35.25-90.75-88.5,0-49,37.5-84.25,89.75-84.25C491.88,550.25,516.13,558.75,532.38,572.75Zm-110.5,3.5c-10,12-16.25,35.25-16.25,59.5,0,28.75,6.75,52,18.25,64,11,11.25,26,17,45,17,39.75,0,61.75-28.5,61.75-80,0-29-7.5-52-20.75-64.5-10.75-10.25-25.5-15.75-42-15.75C448.88,556.5,432.13,563.75,421.88,576.25Z"/><path class="cls-2" d="M747.87,553.25h51.25V559h-6.25c-21.25-.5-23,2-22.5,35.75v82c-.5,34.25,1.25,37.5,21.25,37.5h7.5V720H719.37v-5.75h5.75c19.75,0,21.5-3.25,21.25-37.5V570.5l-66,149.5h-5.75l-66.5-149.5V668c0,23.25.25,27,3.75,33.75,4,7.5,11.5,11.75,21.75,12.5h1.25V720h-59.5v-5.75h1.5c21.5-3,26.5-12.25,25.5-47v-72.5c.5-33.75-1.25-36.25-22.5-35.75h-4.5v-5.75h50.75l61,138Z"/><path class="cls-2" d="M836.87,653.5c-.5,6.25-.5,9-.5,12.25,0,16.75,3,30.75,8,38.5a29.24,29.24,0,0,0,25,13.25c14.5,0,25.75-7,31.75-20h5.75c-5.25,16-21.5,26.5-41,26.5-28.5,0-50-23-50-53.5,0-31.75,21-55.25,49-55.25,23.25,0,41.25,16.25,42,38.25Zm48.5-5a20.55,20.55,0,0,0,.5-5.25c0-13.5-8.75-22.75-21.75-22.75a26.21,26.21,0,0,0-21.5,11.25c-2.75,4-4,7.75-5.25,16.75Z"/><path class="cls-2" d="M1031.37,701.5c-.5,13-8.25,21-20.75,21-11,0-17.25-5.5-19.5-17.5-17.25,12.25-29.5,17.5-40.5,17.5-14.5,0-25-9-25-21.5,0-15,13.5-27,46.5-40.5l19-7.75v-5c0-10.25-.25-13-2-16.5-3.5-7-11-10.75-21-10.75-8,0-15,2-17.75,5.5-2,2.25-2.25,3-3.25,8.25-1,7.25-4.75,11.25-10,11.25-4.5,0-7.5-3-7.5-7.25,0-4.5,3.25-9.5,8.75-14q11.63-9,32.25-9c17,0,28.5,5,34.75,14.75,3,5,3.5,8.25,3.5,20.5v40.75c0,14.25,0,14.25,1,17,1.25,3.5,3.75,5.25,6.75,5.25,5.25,0,9-4.25,10.25-12ZM977.62,664c-20.75,8.5-31.5,19.25-31.5,32.25,0,10.25,6,17.25,14.5,17.25,7.5,0,18.5-5.5,30.5-15.25V658.5Z"/></g><g id="Shapes"><g class="cls-3"><path class="cls-4" d="M197.46,705.5c4,6.08,7.87,7.29,15.92,8.75h1.5V720h-65.5v-5.75h2c14,0,18.5-2,18.5-8.75ZM74.13,699c0,9,6.75,15.25,16.25,15.25h2V720H42.88v-5.75l2.25-.25c9.11-2.06,14.09-5.19,19.39-15Z"/><path class="cls-4" d="M770.85,699c1.47,13.58,6.43,15.25,20.77,15.25h7.5V720H719.37v-5.75h5.75c14.17,0,19.07-1.67,20.62-15.25Zm-2-145.75h30.25V559h-6.25c-14.85-.35-20.18.77-21.87,13A66.37,66.37,0,0,1,768.87,553.25ZM601.74,572c-1.68-12.23-7-13.35-21.87-13h-4.5v-5.75h29C604.48,558.77,603.36,565.2,601.74,572Zm7,119.33a26.39,26.39,0,0,0,3.15,10.42c4,7.5,11.5,11.75,21.75,12.5h1.25V720h-59.5v-5.75h1.5c15.33-2.14,22.27-7.45,24.63-22.92Z"/></g><g class="cls-3"><path class="cls-4" d="M415.81,164.15A105.85,105.85,0,1,1,310,270,105.85,105.85,0,0,1,415.81,164.15m0-5a110.86,110.86,0,1,0,78.38,32.47,110.13,110.13,0,0,0-78.38-32.47Z"/></g><g class="cls-5"><path class="cls-2" d="M373,200.93H475.74v11.53H463.2c-42.61-1-46.12,4-45.11,71.69V448.59c-1,68.68,2.5,75.2,42.61,75.2h15v11.53H315.81V523.79h11.53c39.61,0,43.12-6.52,42.62-75.2V235.52L237.61,535.32H226.08L92.72,235.52V431c0,46.62.5,54.14,7.52,67.68,8,15,23.06,23.56,43.62,25.07h2.5v11.53H27.05V523.79h3c43.11-6,53.14-24.57,51.13-94.25V284.15c1-67.68-2.51-72.69-45.12-71.69h-9V200.93H128.82L251.14,477.66Z"/></g><g class="cls-3"><path class="cls-4" d="M442.31,216.44a18.46,18.46,0,1,1-18.46,18.45,18.46,18.46,0,0,1,18.46-18.45m0-3a21.46,21.46,0,1,0,21.46,21.45,21.48,21.48,0,0,0-21.46-21.45Z"/><line class="cls-6" x1="490.47" y1="205" x2="487.07" y2="207.11"/><line class="cls-7" x1="480.21" y1="211.37" x2="401.23" y2="260.39"/><line class="cls-6" x1="397.8" y1="262.52" x2="394.4" y2="264.63"/></g><g class="cls-3"><path class="cls-4" d="M664.19,164.15A105.85,105.85,0,1,1,558.34,270,105.85,105.85,0,0,1,664.19,164.15m0-5a110.84,110.84,0,1,0,78.38,32.47,110.09,110.09,0,0,0-78.38-32.47Z"/></g><g class="cls-8"><path class="cls-2" d="M699.81,194.58l-8.44,20.86C674.48,254.69,672,263.13,672,274.55c0,17.89,13.41,30.3,32.28,30.3h4v11.43H609.91V304.85l4.47-.49c26.32-6,35.27-16.39,54.14-65.57l11.92-28.31L776.31-20h9.44L896.51,243.76c21.86,52.65,24.84,56.13,52.16,61.09h3v11.43H821.51V304.85h4c27.82,0,36.76-4,36.76-17.38,0-6,0-6-11.42-31.79l-25.34-61.1ZM762.9,42.09,704.28,183.16H821.51Z"/></g><g class="cls-3"><path class="cls-4" d="M700.77,250.32a25.54,25.54,0,1,1-25.54,25.54,25.54,25.54,0,0,1,25.54-25.54m0-3a28.54,28.54,0,1,0,28.54,28.54,28.57,28.57,0,0,0-28.54-28.54Z"/><path class="cls-4" d="M607.61,212.07a44.72,44.72,0,1,1-44.72,44.72,44.72,44.72,0,0,1,44.72-44.72m0-3a47.72,47.72,0,1,0,47.72,47.72,47.77,47.77,0,0,0-47.72-47.72Z"/><line class="cls-6" x1="593.43" y1="314.58" x2="596.63" y2="312.18"/><line class="cls-9" x1="602.69" y1="307.63" x2="660.23" y2="264.41"/><polyline class="cls-6" points="663.26 262.14 666.46 259.74 669.27 262.58"/><line class="cls-10" x1="674.81" y1="268.21" x2="716.39" y2="310.39"/><line class="cls-6" x1="719.16" y1="313.21" x2="721.97" y2="316.06"/></g><path class="cls-11" d="M306.63,714.25c28.5,1.25,39.5-8.5,49.25-43.5h5.75L360.38,720H306.63Z"/><path class="cls-11" d="M244.39,572c-1.7-12.23-6.9-13.35-21.76-13h-3.75v-5.75h80V559h-7.5c-14.85-.35-20.06.77-21.67,13Z"/><path class="cls-11" d="M248.36,720H218.88v-5.75h5c14.12-.18,19-1.76,20.61-15.25C247.93,704.61,249,711.75,248.36,720Z"/></g></svg>