<svg id="Text" xmlns="http://www.w3.org/2000/svg" viewBox="0 0 1080 1080"><defs><style>.cls-1{fill:#fff;}</style></defs><path class="cls-1" d="M40.74,715.78a6.84,6.84,0,0,1,3.29-1h3c.62,0,1.67-.05,3.17-.14q10.14-.92,12-1.84,4.61-2.5,7.9-8.7Q77,690.6,85.55,666q4.1-11.73,5.15-14.24Q94,643.81,97,635.1l12.39-34.68q2.91-8.16,14-37.44,2.77-7.38,6.73-19.77l3.88-.27,4.61.14a182,182,0,0,1,10,24.12q2.38,6.85,7.77,20.44l20,54.18,10.67,29.4q8.43,25,11.07,30.78t4.88,7.58c.44.36,2.08.88,4.94,1.59s4.86,1.23,6,1.58a54.39,54.39,0,0,1,8.44,2.9,7.15,7.15,0,0,1,.52,2.24,7.76,7.76,0,0,1-.39,2q-4.22.14-5.93.13-6.74,0-23.73-.4l-13.19-.29-15.95.2c-1.05,0-2.13,0-3.23-.15s-2-.15-2.83-.15h-2.9a6.61,6.61,0,0,1-2.64-.79,9.82,9.82,0,0,1,.66-3.56,8.2,8.2,0,0,1,2.9-.92l13.84-.93a24.69,24.69,0,0,0,8.17-1.45,12.5,12.5,0,0,0,.79-3.57q0-2.37-3.43-12.28-2.37-6.62-4.14-12.55t-14-39.1a57.81,57.81,0,0,0-9.49-.92l-28.21.26-8.31-.13a82.22,82.22,0,0,0-9.89.66q-1.71,4-2.24,5.67L87.14,685.85q-7.38,20.7-7.38,22.81a12.07,12.07,0,0,0,1.19,4,58.59,58.59,0,0,0,7.38,1.45l17.93,1.58c1,.79,1.45,1.49,1.45,2.11a7.45,7.45,0,0,1-.4,2q-5.93.13-9.09.13-10.55,0-24.52-.66c-4.31-.18-7.39-.26-9.23-.26s-5.06.08-9.63.26c-3,.18-5.14.26-6.46.26q-3.16,0-8.17-.39v-.79A8.58,8.58,0,0,1,40.74,715.78Zm62.91-79.1q14.1.8,32.16.79,10.29,0,18.07-.66a89.92,89.92,0,0,0-3-9.62q-8.57-22.94-9.48-25.3l-12-30.44-1.31-2.38q-.79,1.59-5.81,13.58-8.45,20.55-12.15,32-1.71,5.15-3.56,10.21a71.47,71.47,0,0,0-2.31,7.12,22.49,22.49,0,0,1-1.39,4.15Z"/><path class="cls-1" d="M226.49,720.79a8,8,0,0,1,1.06-3.56,120.72,120.72,0,0,1,20-3.69q6.45-.52,8.3-2.91,1.32-1.71,1.59-12.66l.92-34.83-.13-23.62.13-30.88v-8.18q.14-27.84-.27-34.7a15.38,15.38,0,0,0-1.06-3.7,30.67,30.67,0,0,0-5.76-2.1q-2.31-.54-20.73-3.83c-.09-1-.13-1.67-.13-2.11s0-1.23.13-2.11q2.5,0,8.19.3l20.07.75,11.62.27,3.43-.13c.44,0,1.72.08,3.83.26q7.8,0,9-.13l10.57-.79q10.69,0,15.05.39a24.09,24.09,0,0,1-.92,5.14q-1.45.27-13.71.73t-14.11,1.51q-3,1.72-3,10.55,0,2.12-.27,8.57v7.91l.14,24.39v8.31l.26,43.63-.4,37.18.14,8.18c0,2.63.43,4.26,1.31,4.87q3.3.13,19.38.27h9l22.81-.79q9-.27,12.78-1.78t12.79-8.9a42.37,42.37,0,0,0,8.44-9.76c.44-.7,1.19-1.76,2.24-3.16q2.5-3.43,6.72-13.71h4.35q-.78,4.74-1.71,9-3.83,18.59-5.27,31c-.18,1.76-.35,3.39-.53,4.88l-49.31-1.45q-63.54,0-75.41,1.19-3.69.26-7.77.26Z"/><path class="cls-1" d="M392.08,635.76a81.37,81.37,0,0,1,3.23-23.93,98.37,98.37,0,0,1,10.88-22.74,75.9,75.9,0,0,1,18.45-20.5q10.82-8.25,29.93-14.57,13.46-4.35,34-4.35a100.6,100.6,0,0,1,27.1,3.69,95,95,0,0,1,24.06,10.28q10.8,6.6,21.62,20.31a69.9,69.9,0,0,1,11.34,20.43,89.48,89.48,0,0,1,5,29.66q0,17.4-3.37,28.88a77,77,0,0,1-11.27,22.67q-6.2,8.7-21.22,20-10,7.65-24.92,12.33a106.82,106.82,0,0,1-32.17,4.68,109.55,109.55,0,0,1-31.24-4.09,90.08,90.08,0,0,1-22.88-9.95q-9.17-5.86-18.85-17.34A82.44,82.44,0,0,1,397.09,666,88.09,88.09,0,0,1,392.08,635.76Zm91.49,82a91.27,91.27,0,0,0,23-3.1,57.5,57.5,0,0,0,21.16-10.28A55.67,55.67,0,0,0,542.18,688q5.21-9.16,8.37-23.53a133.25,133.25,0,0,0,3.16-28.74,122.72,122.72,0,0,0-5.27-35.47,64.15,64.15,0,0,0-13.32-23.79,63.06,63.06,0,0,0-22.28-16.22A68.42,68.42,0,0,0,485,554.55a71.38,71.38,0,0,0-23.46,4,59.63,59.63,0,0,0-18.85,10.09q-7.4,6.12-13.72,17.4a97.8,97.8,0,0,0-9.62,24.85,103.11,103.11,0,0,0-3.3,24,108.13,108.13,0,0,0,3.3,24.79,92,92,0,0,0,9,24,74.85,74.85,0,0,0,14.11,18,58.82,58.82,0,0,0,41.06,16.15Z"/><path class="cls-1" d="M592.47,716.84q4.08-2.77,14.77-4c5.53-.26,8.83-.74,9.88-1.44a4.92,4.92,0,0,0,1.59-2q2-4.85,2.9-26.38,1.2-28.08,3.89-74.75,2.16-35.6,2.15-44.43v-3.43q-9.52-2-30.17-4.22a6.34,6.34,0,0,1-1.32-3,6.54,6.54,0,0,1,.92-2.38,11.49,11.49,0,0,1,3.42-.79,42,42,0,0,1,4.61.53,131.6,131.6,0,0,0,17.76.92q3.68,0,12.63-.6c4.21-.3,6.57-.45,7.1-.45a17.9,17.9,0,0,1,4.87.79,11.91,11.91,0,0,1,2,2.54L655,566.18l37.32,82.53,15.55,34.64q18.25-36.26,28.37-64.47a22.24,22.24,0,0,1,1.58-3.82,45.44,45.44,0,0,0,2.23-5q1-2.77,8.54-21.09,3-7.4,4.86-12.66,7.49-21.09,8.8-24.13a11.65,11.65,0,0,1,4.37-1,47.86,47.86,0,0,1,5.41.39q7.41.4,24.06.4,10.3,0,16.92-.26a13,13,0,0,1,.27,2.1,11.21,11.21,0,0,1-.4,2.51,23.47,23.47,0,0,1-10.15,2.5q-11.73.68-14.9,1.85t-4,3q-.86,1.86-1.52,12.13l.14,6.07-.14,6.32q0,19.79,1.06,66.45l-.13,25.84.13,16.61q0,9.77.92,11.54t5.28,3.36q7.11,2.37,23.2,4.88a2,2,0,0,1,.92,1.71c0,.79,0,1.67-.13,2.64h-6.07q-7.8,0-16.91-.47c-6.07-.3-9.33-.46-9.77-.46q-27.07,0-35.92.61-5.42.45-6.87.45a4.49,4.49,0,0,1-2-.53v-1.71a8.56,8.56,0,0,1,.4-2.51,40.2,40.2,0,0,1,11.86-2.5q8.31-2.25,12.13-4.75,1.19-5,1.19-20.46l-.4-26.66q0-4.35.46-16.23t.46-38.66q0-21.24-1-32.2-2.24,4.62-8.8,20l-2,5-.26.79-19.43,46.14-7,17.8-9.06,21.62q-5.91,14.91-10.11,26.37-1.83,5.28-3,8.31l-3.07-.14q-14.91-43.5-35.57-89.25t-29-60.38q-1.1,5.67-2.45,33-1.75,33.23-1.76,73.17a240.31,240.31,0,0,0,1.85,28.12,8.7,8.7,0,0,0,3.82,6.63q3.3,2.18,17,2.43a60.74,60.74,0,0,1,10,.79,8.41,8.41,0,0,1,.92,3,7.31,7.31,0,0,1-.66,2.3l-40.93-1.45c-3,0-7.64.2-14,.59q-5.26.35-15.14.47Z"/><path class="cls-1" d="M920.08,650.39l-52.86.39h-10q-6.08,0-12.39.54a22.85,22.85,0,0,0-1.19,5.41l.13,1.32v1.32l-.13,6.46q0,8,5.08,19.71t14.5,17.79q9.42,6.13,23.53,6.53a48.68,48.68,0,0,0,12-1.85q4.47-1.44,12.65-6.72l9.5-7.78.79,5.27a15.61,15.61,0,0,1-.14,2,57.77,57.77,0,0,1-15,13.19,71.52,71.52,0,0,1-18.45,8.3q-4.49,1.18-14.77,1.19a47.19,47.19,0,0,1-18.45-3.83A44.85,44.85,0,0,1,833.67,701q-7.73-12.86-7.72-31.18a67,67,0,0,1,2.18-14.9A78.41,78.41,0,0,1,836,635.49,38.13,38.13,0,0,1,845.33,624a61.9,61.9,0,0,1,13.85-8.83,51.6,51.6,0,0,1,19.9-3.56q12.27,0,20,4.48a39.87,39.87,0,0,1,15.76,15.3q5.21,9.36,5.2,17.13Zm-73.56-4.75h6.2q6.72,0,40.07-2.1,5.28-.27,6.46-1.06,2.38-2.51,2.38-4.48a21.07,21.07,0,0,0-2.64-9.3,18.18,18.18,0,0,0-8.11-8,27.29,27.29,0,0,0-12.72-2.83q-15.3,0-24.52,11.47Q846.52,638,846.52,645.64Z"/><path class="cls-1" d="M1035.31,702.07a7.11,7.11,0,0,1,.79,2.51q0,2-3.17,7a28.28,28.28,0,0,1-9.09,9.63q-3.17,2-8.7,2-9.5,0-14.24-5.8-2.91-3.42-4.09-12.26l-14.76,10.29q-7.78,4.49-11.87,5.66a63.18,63.18,0,0,1-15.82,1.72q-6.72,0-10.61-4a14.24,14.24,0,0,1-3.89-10.35q0-9.1,11.16-21.75T981.35,666q13.47-5.67,16.52-7.25.25-4.35.26-9.5,0-16.74-4.69-22.67T980,620.6q-9.12,0-17.06,7.11-4.89,4.49-7.4,16.88a27.7,27.7,0,0,1-3,7.38q-5.67,3.69-9.09,3.69a8.83,8.83,0,0,1-5.28-1.71,2.58,2.58,0,0,1-1.31-2.11q0-3.42,7.31-15.49a48.43,48.43,0,0,1,18.46-18.06q11.14-6,19.45-6,11.33,0,16.87,2a24.43,24.43,0,0,1,14.9,18.39q.52,2.91.53,20.7l-.4,21,.13,15.3c0,2,0,3.73-.13,5.14-.09,2.55-.13,4.44-.13,5.67a9.73,9.73,0,0,0,2.5,7,7.94,7.94,0,0,0,5.94,2.63q5,0,8.57-5l1.58-2.11A12.33,12.33,0,0,1,1035.31,702.07Zm-38.63-3.82q.92-16.74.92-23.6,0-3.55-.39-9.63a90.94,90.94,0,0,0-18.79,9.63,55.68,55.68,0,0,0-15.74,14.9q-4.23,6.06-4.23,11.47a11.5,11.5,0,0,0,3.5,8.56,12.06,12.06,0,0,0,8.8,3.43q4.1,0,9.92-2.9A66.29,66.29,0,0,0,996.68,698.25Z"/></svg>