<svg id="Text" xmlns="http://www.w3.org/2000/svg" viewBox="0 0 1080 1080"><defs><style>.cls-1{fill:#fff;}</style></defs><path class="cls-1" d="M88.13,658.75l-4.25,10.5c-8.5,19.75-9.75,24-9.75,29.75,0,9,6.75,15.25,16.25,15.25h2V720H42.88v-5.75l2.25-.25c13.25-3,17.75-8.25,27.25-33l6-14.25,48.25-116h4.75L187.13,683.5c11,26.5,12.5,28.25,26.25,30.75h1.5V720h-65.5v-5.75h2c14,0,18.5-2,18.5-8.75,0-3,0-3-5.75-16l-12.75-30.75ZM119.88,582l-29.5,71h59Z"/><path class="cls-1" d="M360.38,720H218.88v-5.75h5c19.75-.25,21.5-3.25,21.25-37.75V594.75c.25-33.75-1.25-36.25-22.5-35.75h-3.75v-5.75h80V559h-7.5c-21.25-.5-22.75,2-22.25,35.75V682c-.75,30,.75,32,25,32.25h12.5c28.5,1.25,39.5-8.5,49.25-43.5h5.75Z"/><path class="cls-1" d="M532.38,572.75c16.75,14.75,26.5,38,26.5,63.5,0,51.75-36.5,86.75-90.75,86.75-54.5,0-90.75-35.25-90.75-88.5,0-49,37.5-84.25,89.75-84.25C491.88,550.25,516.13,558.75,532.38,572.75Zm-110.5,3.5c-10,12-16.25,35.25-16.25,59.5,0,28.75,6.75,52,18.25,64,11,11.25,26,17,45,17,39.75,0,61.75-28.5,61.75-80,0-29-7.5-52-20.75-64.5-10.75-10.25-25.5-15.75-42-15.75C448.88,556.5,432.13,563.75,421.88,576.25Z"/><path class="cls-1" d="M747.87,553.25h51.25V559h-6.25c-21.25-.5-23,2-22.5,35.75v82c-.5,34.25,1.25,37.5,21.25,37.5h7.5V720H719.37v-5.75h5.75c19.75,0,21.5-3.25,21.25-37.5V570.5l-66,149.5h-5.75l-66.5-149.5V668c0,23.25.25,27,3.75,33.75,4,7.5,11.5,11.75,21.75,12.5h1.25V720h-59.5v-5.75h1.5c21.5-3,26.5-12.25,25.5-47v-72.5c.5-33.75-1.25-36.25-22.5-35.75h-4.5v-5.75h50.75l61,138Z"/><path class="cls-1" d="M836.87,653.5c-.5,6.25-.5,9-.5,12.25,0,16.75,3,30.75,8,38.5a29.24,29.24,0,0,0,25,13.25c14.5,0,25.75-7,31.75-20h5.75c-5.25,16-21.5,26.5-41,26.5-28.5,0-50-23-50-53.5,0-31.75,21-55.25,49-55.25,23.25,0,41.25,16.25,42,38.25Zm48.5-5a20.55,20.55,0,0,0,.5-5.25c0-13.5-8.75-22.75-21.75-22.75a26.21,26.21,0,0,0-21.5,11.25c-2.75,4-4,7.75-5.25,16.75Z"/><path class="cls-1" d="M1031.37,701.5c-.5,13-8.25,21-20.75,21-11,0-17.25-5.5-19.5-17.5-17.25,12.25-29.5,17.5-40.5,17.5-14.5,0-25-9-25-21.5,0-15,13.5-27,46.5-40.5l19-7.75v-5c0-10.25-.25-13-2-16.5-3.5-7-11-10.75-21-10.75-8,0-15,2-17.75,5.5-2,2.25-2.25,3-3.25,8.25-1,7.25-4.75,11.25-10,11.25-4.5,0-7.5-3-7.5-7.25,0-4.5,3.25-9.5,8.75-14q11.63-9,32.25-9c17,0,28.5,5,34.75,14.75,3,5,3.5,8.25,3.5,20.5v40.75c0,14.25,0,14.25,1,17,1.25,3.5,3.75,5.25,6.75,5.25,5.25,0,9-4.25,10.25-12ZM977.62,664c-20.75,8.5-31.5,19.25-31.5,32.25,0,10.25,6,17.25,14.5,17.25,7.5,0,18.5-5.5,30.5-15.25V658.5Z"/></svg>