<svg id="Text" xmlns="http://www.w3.org/2000/svg" viewBox="0 0 1080 1080"><defs><style>.cls-1{fill:#fff;}</style></defs><path class="cls-1" d="M194.75,695c6,17.5,9.75,18.5,22.75,19.25V720H157.75v-5.75c17-.75,20.5-2.5,14.75-19.25l-14.25-43c-1.75,1.75-5.5,2-9,2H116.5c-7.25,0-10.25.75-13,8L91.75,695c-4.25,12.75-1.75,18.5,19.5,19.25V720H59.5v-5.75c10.5-.75,16-6.5,20.75-19.25L124.5,573.5c3.25-8.75,6.5-16.75,8.75-25.5H145.5a254,254,0,0,0,8.5,25.5Zm-45-50c4.25,0,6-.75,4.5-4.75l-20.5-60.75h-.5l-24,66.25c1.5-.75,4-.75,7-.75Z"/><path class="cls-1" d="M234.25,720v-5.75c13.25-.5,17.5-2,17.5-19.25V578.75c0-17.25-4-18.75-23.75-19.25v-5.75h62.5v5.75c-13.5.5-17.5,2-17.5,19.25V695c0,14.5,4,16,19,16h22.75c24.75,0,31.75-13.75,33.25-30h5.75l-2,39Z"/><path class="cls-1" d="M538.5,636.5c0,52.5-38.5,87.25-84,87.25-44.75,0-83.5-33.75-83.5-86.5,0-52.5,38.5-87.25,83.75-87.25C499.75,550,538.5,583.75,538.5,636.5ZM514,641.25c0-52-30.5-81.25-62.75-81.25-30,0-56,25-56,72.5,0,52,30.75,81.25,63,81.25C488,713.75,514,688.75,514,641.25Z"/><path class="cls-1" d="M661.5,722c-2.75-7.75-6-14-12.25-28L601.5,587.75H601L596,695c-.5,12.25,3.5,18.5,24,19.25V720H566.75v-5.75c13-.75,17.25-7,17.75-19.25l5.75-116.25c.75-17.25-3-18.5-21.75-19.25v-5.75H611a200.28,200.28,0,0,0,10,25l50.5,111h.5l46.5-111c3.5-8.5,6.25-16.75,8.75-25h39.5v5.75c-14,.75-18.25,2-17.5,19.25L754.5,695c.75,17.25,4.75,18.5,21.5,19.25V720H718v-5.75c12-.75,16-2,15.25-19.25L728.5,586H728L682.25,694c-5.75,14-8.5,20.25-10.5,28Z"/><path class="cls-1" d="M893.25,696.75c-9.5,16-25.25,27-45.5,27-25.75,0-50.75-17.5-50.75-55,0-37.75,25-62.5,54.75-62.5,21.5,0,40.25,12.75,40.25,39.5l-75,9.75v2.75c0,30.75,15.25,49,38.5,49,13.25,0,24.75-6.25,33.75-14.5Zm-75.5-49.25,51.75-6.75c-2-14.25-7.75-25.25-23-25.25C829,615.5,820.25,629.5,817.75,647.5Z"/><path class="cls-1" d="M1023,702.75c-7.75,13.25-16.75,19.75-27.5,19.75-11,0-17.75-5.5-20.25-16.75h-.5c-9.25,12-21,18-34.25,18-15.75,0-26.5-8.25-26.5-23.75,0-18.5,15.25-32,60.75-43.25V640.5c0-13.75-4.75-23.75-21-23.75-15.75,0-24.5,9.75-28.25,30.25h-5.75V615.75a91.3,91.3,0,0,1,40.5-9.5c27.25,0,34.5,11.75,34.5,29v60.5c0,8.75,2.5,13.25,8.25,13.25,4,0,9-2,16-10.25ZM974.75,664.5c-36,9-40.25,21.5-40.25,30.5,0,9.75,6.75,14,15.25,14,8.25,0,16.5-3.75,25-11Z"/></svg>