<svg xmlns="http://www.w3.org/2000/svg" xmlns:xlink="http://www.w3.org/1999/xlink" viewBox="0 0 1080 1080"><defs><style>.cls-1,.cls-6{fill:none;}.cls-2{fill:#fff;}.cls-3,.cls-6{opacity:0.65;}.cls-4{fill:#97d700;}.cls-5{clip-path:url(#clip-path);}.cls-6{stroke:#97d700;stroke-miterlimit:10;stroke-width:2px;stroke-dasharray:8;}.cls-7{clip-path:url(#clip-path-2);}</style><clipPath id="clip-path"><circle class="cls-1" cx="415.81" cy="270" r="105.85"/></clipPath><clipPath id="clip-path-2"><circle class="cls-1" cx="664.19" cy="270" r="105.85"/></clipPath></defs><g id="Text"><path class="cls-2" d="M97,659.8l-18.2,54.6H103.2V720H57.84v-5.6H71.28l63.28-181.16H143l60.2,181.16H223V720H147.16v-5.6h24.36L153,659.8Zm28.28-83.16L99,654.2h52.36Z"/><path class="cls-2" d="M253.28,538.84H230v-5.6h76.44v5.6H283.24V714.4h33c33.88,1.4,44-8.4,54.32-52.08h3.64L369.48,720H230v-5.6h23.24Z"/><path class="cls-2" d="M554.84,627.88c0,24.36-10.36,51-27.16,70-14.56,16-33.88,24.92-54,24.92-44.24,0-81.48-44.24-81.48-96.32,0-51.8,37.24-96,81.2-96C518.16,530.44,554.84,574.4,554.84,627.88Zm-118.16-71.4c-6.44,10.92-9,30.52-9,70.28,0,43.12,2.8,61.88,10.92,73.08,7.56,10.36,20.44,16.52,35,16.52,15.68,0,29.68-7.28,36.68-19.6,6.44-10.92,9-30.52,9-68.88,0-44.52-2.8-63.28-10.64-74.48-7.56-10.36-20.72-16.52-35-16.52C457.4,536.88,443.68,544.16,436.68,556.48Z"/><path class="cls-2" d="M596.84,538.84H573.6v-5.6h58.24L673.56,671l41.72-137.76h56.56v5.6H748.6V714.4h23.24V720H695.4v-5.6h23.24V543.6L665.44,720h-7L603.28,541.64V714.4h23.24V720H573.6v-5.6h23.24Z"/><path class="cls-2" d="M819.72,655.88V664c0,27.72.56,33.6,3.64,39.48,4.2,8.4,12.32,12.88,23,12.88,17.92,0,31.92-12.32,37.24-33.32h6.72C885.8,706.56,867,722.8,844.64,722.8c-28.56,0-54-27.16-54-58s24.64-57.68,52.64-57.68c17.36,0,32.76,8.4,41.72,22.68,4.76,7.56,6.72,14.28,7.28,26Zm43.4-5.6c0-18.48-.28-20.72-2.24-25.76-2.52-7-9.24-10.92-17.92-10.92-9.24,0-16.8,3.64-20.16,10.08-3.08,5.6-3.08,5.6-3.08,26.6Z"/><path class="cls-2" d="M1018.24,714.4c-6.44,6.16-12,8.4-19.32,8.4-13.72,0-21.84-7.56-23.52-21.84-8.12,14-21.28,21.84-36.4,21.84-17.64,0-29.68-10.64-29.68-26,0-13.72,9-24.64,25.48-31.36,10.36-3.92,21.84-5.88,40.6-6.16V639.92c0-16-.56-18.76-3.64-22.4-2.8-3.36-9-5.6-15.12-5.6-10.08,0-21.28,6.16-21.28,11.76,0,1.12.28,1.68,1.4,3.08,3.08,3.36,3.92,5.6,3.92,8.68,0,7-5,12-11.48,12-7,0-12-5-12-12.32,0-14.84,20.72-28,44-28,13.72,0,26.32,4.48,33,11.76,6.16,6.44,6.44,7.84,6.44,32.48v30.8c0,26.6,0,26.6,1.12,29.12.84,2.52,2,3.36,4.76,3.36s3.36-.28,8.4-4.48ZM975.4,664c-14.84.56-21.84,2.24-28.56,6.44-8.4,5-12.6,12-12.6,21.28,0,11.76,6.16,18.76,16.8,18.76,8.4,0,15.4-4.48,19.88-12.6,3.08-5.32,4.48-13.72,4.48-28.28Z"/></g><g id="Shapes"><g class="cls-3"><path class="cls-4" d="M203.16,714.4H223V720H147.16v-5.6h24.36m-92.68,0H103.2V720H57.84v-5.6H71.28"/><path class="cls-4" d="M253.28,538.84H230v-5.6h76.44v5.6H283.24M253.28,720H230v-5.6h23.24m63,0c33.88,1.4,44-8.4,54.32-52.08h3.64L369.48,720h-53.2"/></g><g class="cls-3"><path class="cls-4" d="M415.81,164.15A105.85,105.85,0,1,1,310,270,105.85,105.85,0,0,1,415.81,164.15m0-5a110.86,110.86,0,1,0,78.38,32.47,110.13,110.13,0,0,0-78.38-32.47Z"/></g><g class="cls-5"><path class="cls-2" d="M273.11,231.38l-29.79,89.37h39.87v9.16H209v-9.16h22L334.52,24.23h13.75L446.8,320.75h32.54v9.16H355.14v-9.16H395l-30.25-89.37ZM319.4,95.26l-43.08,127H362Z"/><line class="cls-6" x1="320.87" y1="329.91" x2="509.37" y2="329.91"/><line class="cls-6" x1="320.87" y1="320.75" x2="509.37" y2="320.75"/></g><g class="cls-3"><path class="cls-4" d="M664.19,164.15A105.85,105.85,0,1,1,558.34,270,105.85,105.85,0,0,1,664.19,164.15m0-5a110.84,110.84,0,1,0,78.38,32.47,110.09,110.09,0,0,0-78.38-32.47Z"/></g><g class="cls-7"><path class="cls-2" d="M652.58,207.43h-38v-9.17h95.33l68.28,225.49,68.29-225.49H939v9.17H901V494.79h38V504H813.9v-9.16h38V215.22L764.86,504H753.4L663.12,212V494.79h38V504H614.54v-9.16h38Z"/><line class="cls-6" x1="571.87" y1="207.43" x2="753.97" y2="207.43"/><line class="cls-6" x1="571.87" y1="198.26" x2="753.97" y2="198.26"/></g></g></svg>