<svg xmlns="http://www.w3.org/2000/svg" xmlns:xlink="http://www.w3.org/1999/xlink" viewBox="0 0 1080 1080"><defs><style>.cls-1{fill:none;}.cls-2{fill:#fff;}.cls-3{opacity:0.65;}.cls-4,.cls-6,.cls-8{fill:#97d700;}.cls-5{clip-path:url(#clip-path);}.cls-6{opacity:0.35;}.cls-7{clip-path:url(#clip-path-2);}.cls-8{fill-opacity:0.65;}</style><clipPath id="clip-path"><circle class="cls-1" cx="415.81" cy="270" r="105.85"/></clipPath><clipPath id="clip-path-2"><circle class="cls-1" cx="664.19" cy="270" r="105.85"/></clipPath></defs><g id="Text"><path class="cls-2" d="M168,660.64H108.39L96.63,703.48l21.28,2.8V720H58.55V706.28l16.8-2.52L128,527.08h26l54.88,176.68,15.68,2.52V720H160.75V706.28l19.88-2.52ZM112.87,644.4h50.4L149,596q-4.49-14.55-6.86-25.48t-3.78-21.56h-.56q-.84,5.61-1.82,10.64t-2.38,10.64q-1.41,5.61-3.22,11.9t-4.06,14.14Z"/><path class="cls-2" d="M284,703.48h58l4.76-28.28h16V720h-124V706.28l19.6-2.24V543.32l-19.6-2.52V527.08h65V540.8L284,543.32Z"/><path class="cls-2" d="M452.79,723.64q-72,0-72-99.4,0-49.28,18.2-75t53.19-25.76q35,0,53.35,25.34t18.34,74.06Q523.91,723.64,452.79,723.64Zm-.29-17.08q24.09,0,33.88-19.6t9.8-61.6q0-42.84-9.8-63.7T452.5,540.8q-24.08,0-34,20.16t-9.95,62.16q0,42.84,9.95,63.14T452.5,706.56Z"/><path class="cls-2" d="M602.86,527.08l30.52,93a209.4,209.4,0,0,1,6.72,22.68q2,9,3.08,16.52h.56q1.39-7.28,3.64-16.38t7-22.82l31.64-93h52.92V540.8l-19.6,2.52V703.76l19.6,2.24v14H674V706l19.6-2.24V606q0-24.36.7-36.82t1-17.78h-.56q-.56,2.25-1.82,7.56t-3.36,12.46q-2.1,7.14-4.76,15.26T679.3,603L651,684.16H630.86L604,606.32q-3.08-8.4-5.6-17.22t-4.48-16.38q-2-7.56-3.22-13.3t-1.82-8h-.56q.29,4.77.84,19t.56,35.84v97.44L609.3,706v14H550.5V706l19.6-2.24V543.32l-19.6-2.52V527.08Z"/><path class="cls-2" d="M820.7,723.64q-27.45,0-42.56-17.22T763,649.72q0-19.87,4.06-33.88T778.42,593a42.83,42.83,0,0,1,17.64-12.88,61.72,61.72,0,0,1,22.68-4.06,64.25,64.25,0,0,1,22.4,3.64,38.58,38.58,0,0,1,16.52,11.76q6.72,8.13,10.22,21.14t3.5,32.06v9H787.94a149.73,149.73,0,0,0,2.24,25.06q2,10.23,6.16,16.66a23.69,23.69,0,0,0,10.92,9.24q6.72,2.8,16.52,2.8,12.6,0,21.14-3.5a91.39,91.39,0,0,0,16.1-8.54l8.12,11.76a74.65,74.65,0,0,1-21.56,12.46Q836.38,723.63,820.7,723.64ZM818.18,591.2q-14.28,0-21.42,10.78t-8.54,36.54H845.9a175.9,175.9,0,0,0-1.12-21.28,42.45,42.45,0,0,0-4.2-14.7,20.19,20.19,0,0,0-8.4-8.54Q826.86,591.21,818.18,591.2Z"/><path class="cls-2" d="M1013.06,719.44a38.57,38.57,0,0,1-9.52,3.08,55,55,0,0,1-10.64,1.12q-8.68,0-14.42-4.06t-7.15-12.18a61,61,0,0,1-15.12,11.34q-9,4.89-21.55,4.9-19.32,0-30.1-9.94t-10.78-31.78q0-24.36,15.12-34.86t49.56-10.5h11.48V621.44a55.35,55.35,0,0,0-1-10.78,20.41,20.41,0,0,0-3.5-8.26,17.24,17.24,0,0,0-6.87-5.32,27,27,0,0,0-11.05-2,70.22,70.22,0,0,0-20.87,3.08A141.29,141.29,0,0,0,906.94,606l-7.28-14.56a120.53,120.53,0,0,1,23.93-10.92,91.41,91.41,0,0,1,29.27-4.48q20.71,0,30.93,9.8T994,618.36v74.2a36.76,36.76,0,0,0,.69,7.84,9,9,0,0,0,2.53,4.76,9.06,9.06,0,0,0,5.18,2.1,72.48,72.48,0,0,0,8.67.42Zm-73.93-13.16a37.19,37.19,0,0,0,18.07-4.2,47.48,47.48,0,0,0,12.74-9.8V651.12H959.58a124.68,124.68,0,0,0-19.33,1.26,31.28,31.28,0,0,0-12.59,4.48,18,18,0,0,0-6.87,8.82A41.5,41.5,0,0,0,918.7,680q0,14.56,5,20.44T939.13,706.28Z"/></g><g id="Shapes"><g class="cls-3"><path class="cls-4" d="M415.81,164.15A105.85,105.85,0,1,1,310,270,105.85,105.85,0,0,1,415.81,164.15m0-5a110.86,110.86,0,1,0,78.38,32.47,110.13,110.13,0,0,0-78.38-32.47Z"/></g><g class="cls-5"><path class="cls-2" d="M405.85,533.67h99.68L513.71,485h27.45v77.05H327.83V538.49l33.71-3.86V258.22l-33.71-4.33v-23.6H439.55v23.6l-33.7,4.33Z"/></g><circle class="cls-6" cx="414.3" cy="243.59" r="10.31"/><g class="cls-3"><path class="cls-4" d="M414.3,233.28A10.31,10.31,0,1,1,404,243.59a10.31,10.31,0,0,1,10.31-10.31m0-3a13.31,13.31,0,1,0,13.3,13.31,13.32,13.32,0,0,0-13.3-13.31Z"/></g><circle class="cls-6" cx="488.99" cy="290.55" r="10.31"/><g class="cls-3"><path class="cls-4" d="M489,280.24a10.31,10.31,0,1,1-10.31,10.31A10.31,10.31,0,0,1,489,280.24m0-3a13.31,13.31,0,1,0,13.3,13.31A13.32,13.32,0,0,0,489,277.24Z"/></g><circle class="cls-6" cx="383.68" cy="290.55" r="19.1"/><g class="cls-3"><path class="cls-4" d="M383.68,271.45a19.1,19.1,0,1,1-19.1,19.1,19.1,19.1,0,0,1,19.1-19.1m0-3a22.1,22.1,0,1,0,22.1,22.1,22.13,22.13,0,0,0-22.1-22.1Z"/></g><circle class="cls-6" cx="453.36" cy="290.55" r="19.1"/><g class="cls-3"><path class="cls-4" d="M453.36,271.45a19.1,19.1,0,1,1-19.09,19.1,19.1,19.1,0,0,1,19.09-19.1m0-3a22.1,22.1,0,1,0,22.1,22.1,22.12,22.12,0,0,0-22.1-22.1Z"/></g><g class="cls-3"><path class="cls-4" d="M664.19,164.15A105.85,105.85,0,1,1,558.34,270,105.85,105.85,0,0,1,664.19,164.15m0-5a110.84,110.84,0,1,0,78.38,32.47,110.09,110.09,0,0,0-78.38-32.47Z"/></g><g class="cls-7"><path class="cls-2" d="M707.46,11.25,760,171.12q8.19,23.61,11.56,39t5.3,28.41h1q2.4-12.53,6.26-28.17t12-39.25L850.48,11.25h91V34.84l-33.71,4.34V315.1L941.5,319V343H829.78V319l33.71-3.86v-168q0-41.9,1.2-63.33t1.69-30.58h-1c-.65,2.58-1.68,6.91-3.13,13s-3.37,13.24-5.78,21.42-5.14,16.94-8.18,26.25-6.19,18.62-9.39,27.93L790.29,281.4H755.62L709.39,147.53q-5.29-14.44-9.63-29.62t-7.71-28.17q-3.36-13-5.53-22.87t-3.13-13.73h-1q.48,8.2,1.45,32.75t1,61.64V315.1L718.54,319V343H617.42V319l33.7-3.86V39.18l-33.7-4.34V11.25Z"/></g><circle class="cls-6" cx="646.96" cy="329.36" r="10.82"/><g class="cls-3"><path class="cls-4" d="M647,318.53a10.83,10.83,0,1,1-10.82,10.83A10.83,10.83,0,0,1,647,318.53m0-3a13.83,13.83,0,1,0,13.83,13.83A13.84,13.84,0,0,0,647,315.53Z"/></g><circle class="cls-6" cx="622.29" cy="290.55" r="10.82"/><g class="cls-3"><path class="cls-4" d="M622.29,279.73a10.82,10.82,0,1,1-10.82,10.82,10.81,10.81,0,0,1,10.82-10.82m0-3a13.82,13.82,0,1,0,13.82,13.82,13.84,13.84,0,0,0-13.82-13.82Z"/></g><circle class="cls-6" cx="668.02" cy="290.55" r="14.02"/><g class="cls-3"><path class="cls-4" d="M668,276.53a14,14,0,1,1-14,14,14,14,0,0,1,14-14m0-3a17,17,0,1,0,17,17,17,17,0,0,0-17-17Z"/></g><circle class="cls-6" cx="591.16" cy="290.55" r="14.02"/><g class="cls-3"><path class="cls-4" d="M591.16,276.53a14,14,0,1,1-14,14,14,14,0,0,1,14-14m0-3a17,17,0,1,0,17,17,17,17,0,0,0-17-17Z"/></g><path class="cls-8" d="M208.91,703.76l15.68,2.52V720H160.75V706.28l19.88-2.52Zm-112.28-.28,21.28,2.8V720H58.55V706.28l16.8-2.52Z"/><polyline class="cls-8" points="258.19 543.32 238.59 540.8 238.59 527.08 303.55 527.08 303.55 540.8 283.95 543.32"/><polyline class="cls-8" points="258.19 720 238.59 720 238.59 706.28 258.19 704.04"/><polyline class="cls-8" points="341.91 703.48 346.67 675.2 362.63 675.2 362.63 720 341.91 720"/><path class="cls-8" d="M570.1,543.32l-19.6-2.52V527.08h19.6Zm19.6,160.44L609.3,706v14H550.5V706l19.6-2.24Zm129.64,0,19.6,2.24v14H674V706l19.6-2.24Zm0-176.68h19.6V540.8l-19.6,2.52Z"/></g></svg>